<?xml version="1.0" encoding="UTF-8"?><svg id="Calque_2" xmlns="http://www.w3.org/2000/svg" xmlns:xlink="http://www.w3.org/1999/xlink" viewBox="0 0 407.18 814.36"><defs><style>.cls-1{fill:none;}.cls-2{opacity:.1;}.cls-3{fill:url(#hexa);}.cls-4{fill:#0c2036;}</style><pattern id="hexa" x="0" y="0" width="32.03" height="29.3" patternTransform="translate(-15566.57 -17776.75) rotate(-180) scale(.81)" patternUnits="userSpaceOnUse" viewBox="0 0 32.03 29.3"><g><rect class="cls-1" width="32.03" height="29.3"/><g><polygon class="cls-4" points="22.01 22.98 20.49 22.98 19.73 24.29 20.49 25.61 22.01 25.61 22.77 24.29 22.01 22.98"/><polygon class="cls-4" points="27.59 22.98 26.07 22.98 25.31 24.29 26.07 25.61 27.59 25.61 28.35 24.29 27.59 22.98"/><polygon class="cls-4" points="30.27 27.99 28.75 27.99 27.99 29.3 28.75 30.62 30.27 30.62 31.03 29.3 30.27 27.99"/><polygon class="cls-4" points="19.29 27.99 17.77 27.99 17.01 29.3 17.77 30.62 19.29 30.62 20.05 29.3 19.29 27.99"/></g><g><polygon class="cls-4" points="5.99 22.98 4.47 22.98 3.72 24.29 4.47 25.61 5.99 25.61 6.75 24.29 5.99 22.98"/><polygon class="cls-4" points="11.57 22.98 10.05 22.98 9.29 24.29 10.05 25.61 11.57 25.61 12.33 24.29 11.57 22.98"/><polygon class="cls-4" points="14.25 27.99 12.74 27.99 11.98 29.3 12.74 30.62 14.25 30.62 15.01 29.3 14.25 27.99"/><polygon class="cls-4" points="3.28 27.99 1.76 27.99 1 29.3 1.76 30.62 3.28 30.62 4.04 29.3 3.28 27.99"/></g><g><polygon class="cls-4" points="30.01 8.33 28.49 8.33 27.74 9.64 28.49 10.96 30.01 10.96 30.77 9.64 30.01 8.33"/><polygon class="cls-4" points="27.3 13.34 25.78 13.34 25.02 14.65 25.78 15.97 27.3 15.97 28.06 14.65 27.3 13.34"/><polygon class="cls-4" points="29.73 18.35 28.21 18.35 27.45 19.66 28.21 20.98 29.73 20.98 30.49 19.66 29.73 18.35"/></g><g><polygon class="cls-4" points="14 8.33 12.48 8.33 11.72 9.64 12.48 10.96 14 10.96 14.76 9.64 14 8.33"/><polygon class="cls-4" points="19.58 8.33 18.06 8.33 17.3 9.64 18.06 10.96 19.58 10.96 20.34 9.64 19.58 8.33"/><polygon class="cls-4" points="22.26 13.34 20.74 13.34 19.98 14.65 20.74 15.97 22.26 15.97 23.02 14.65 22.26 13.34"/><polygon class="cls-4" points="11.29 13.34 9.77 13.34 9.01 14.65 9.77 15.97 11.29 15.97 12.05 14.65 11.29 13.34"/><polygon class="cls-4" points="19.58 18.35 18.06 18.35 17.3 19.66 18.06 20.98 19.58 20.98 20.34 19.66 19.58 18.35"/><polygon class="cls-4" points="13.72 18.35 12.2 18.35 11.44 19.66 12.2 20.98 13.72 20.98 14.48 19.66 13.72 18.35"/></g><g><polygon class="cls-4" points="3.57 8.33 2.05 8.33 1.29 9.64 2.05 10.96 3.57 10.96 4.33 9.64 3.57 8.33"/><polygon class="cls-4" points="6.25 13.34 4.73 13.34 3.97 14.65 4.73 15.97 6.25 15.97 7.01 14.65 6.25 13.34"/><polygon class="cls-4" points="3.57 18.35 2.05 18.35 1.29 19.66 2.05 20.98 3.57 20.98 4.33 19.66 3.57 18.35"/></g><g><polygon class="cls-4" points="30.27 -1.32 28.75 -1.32 27.99 0 28.75 1.32 30.27 1.32 31.03 0 30.27 -1.32"/><polygon class="cls-4" points="19.29 -1.32 17.77 -1.32 17.01 0 17.77 1.32 19.29 1.32 20.05 0 19.29 -1.32"/><polygon class="cls-4" points="27.59 3.69 26.07 3.69 25.31 5.01 26.07 6.33 27.59 6.33 28.35 5.01 27.59 3.69"/><polygon class="cls-4" points="21.73 3.69 20.21 3.69 19.45 5.01 20.21 6.33 21.73 6.33 22.48 5.01 21.73 3.69"/></g><g><polygon class="cls-4" points="14.25 -1.32 12.74 -1.32 11.98 0 12.74 1.32 14.25 1.32 15.01 0 14.25 -1.32"/><polygon class="cls-4" points="3.28 -1.32 1.76 -1.32 1 0 1.76 1.32 3.28 1.32 4.04 0 3.28 -1.32"/><polygon class="cls-4" points="11.57 3.69 10.05 3.69 9.29 5.01 10.05 6.33 11.57 6.33 12.33 5.01 11.57 3.69"/><polygon class="cls-4" points="5.71 3.69 4.19 3.69 3.43 5.01 4.19 6.33 5.71 6.33 6.47 5.01 5.71 3.69"/></g></g></pattern></defs><g id="Calque_2-2"><g class="cls-2"><path class="cls-3" d="M0,0C54.92,0,108.25,10.78,158.53,32.05c48.5,20.51,92.03,49.86,129.39,87.21,37.36,37.36,66.7,80.89,87.21,129.39,21.26,50.27,32.05,103.61,32.05,158.53s-10.78,108.25-32.05,158.53c-20.51,48.5-49.86,92.03-87.21,129.39-37.36,37.36-80.89,66.7-129.39,87.21-50.28,21.26-103.61,32.05-158.53,32.05v-234.26c46.19,0,89.61-17.99,122.27-50.65,32.66-32.66,50.65-76.08,50.65-122.27s-17.99-89.61-50.65-122.27C89.61,252.25,46.19,234.26,0,234.26V0Z"/></g></g></svg>