<svg width="450" height="681" viewBox="0 0 450 681" fill="none" xmlns="http://www.w3.org/2000/svg">
<path d="M686.764 449.576C685.703 480.952 677.31 511.644 662.259 539.195C647.207 566.745 625.915 590.389 600.085 608.234C574.256 626.078 544.607 637.627 513.513 641.957C482.42 646.286 450.744 643.276 421.022 633.166C391.3 623.057 364.358 606.129 342.353 583.739C320.348 561.348 303.89 534.116 294.298 504.223C284.706 474.331 282.246 442.607 287.114 411.593C291.983 380.579 304.045 351.136 322.335 325.62L351.187 346.301C336.126 367.313 326.193 391.559 322.183 417.098C318.174 442.638 320.2 468.761 328.099 493.377C335.998 517.993 349.55 540.418 367.671 558.856C385.792 577.294 407.978 591.234 432.453 599.559C456.928 607.884 483.013 610.363 508.618 606.798C534.223 603.232 558.638 593.722 579.908 579.027C601.178 564.333 618.712 544.863 631.106 522.175C643.501 499.488 650.412 474.214 651.285 448.377L686.764 449.576Z" fill="#FD7762"/>
</svg>
