<svg width="376" height="744" viewBox="0 0 376 744" fill="none" xmlns="http://www.w3.org/2000/svg">
<path d="M284.627 361.218C263.338 347.335 246.071 328.102 234.554 305.445C223.038 282.789 217.677 257.503 219.008 232.123C220.34 206.742 228.317 182.156 242.142 160.829C255.966 139.502 275.151 122.182 297.776 110.603C320.401 99.0245 345.672 93.5942 371.056 94.8562C396.44 96.1181 421.048 104.028 442.413 117.794C463.778 131.559 481.151 150.697 492.791 173.29C504.432 195.883 509.932 221.139 508.739 246.526L476.964 245.034C477.895 225.214 473.601 205.498 464.513 187.86C455.426 170.222 441.863 155.281 425.184 144.534C408.504 133.788 389.294 127.613 369.477 126.627C349.659 125.642 329.931 129.882 312.268 138.921C294.605 147.96 279.627 161.482 268.835 178.132C258.043 194.781 251.815 213.975 250.775 233.789C249.736 253.604 253.921 273.343 262.911 291.031C271.902 308.719 285.383 323.734 302.003 334.572L284.627 361.218Z" fill="#B6EAF2"/>
</svg>
