<svg width="313" height="730" viewBox="0 0 313 730" fill="none" xmlns="http://www.w3.org/2000/svg">
<path d="M574.452 280.925C583.952 310.847 586.314 342.578 581.35 373.577C576.386 404.576 564.233 433.982 545.864 459.441C527.496 484.9 503.422 505.706 475.569 520.191C447.717 534.676 416.86 542.439 385.469 542.859C354.078 543.278 323.024 536.343 294.795 522.607C266.565 508.871 241.944 488.717 222.901 463.758C203.859 438.798 190.924 409.727 185.134 378.872C179.343 348.017 180.856 316.234 189.553 286.069L223.662 295.903C216.501 320.743 215.254 346.916 220.023 372.324C224.791 397.733 235.443 421.672 251.124 442.225C266.805 462.779 287.08 479.375 310.326 490.687C333.573 501.998 359.144 507.709 384.994 507.364C410.844 507.018 436.254 500.625 459.19 488.697C482.126 476.769 501.95 459.636 517.077 438.671C532.203 417.706 542.21 393.491 546.298 367.964C550.386 342.437 548.441 316.307 540.618 291.667L574.452 280.925Z" fill="#FD7762"/>
<path d="M490.721 604.268C451.345 624.948 407.473 635.587 362.998 635.239C318.523 634.891 274.822 623.567 235.775 602.272C196.728 580.978 163.543 550.372 139.166 513.171C114.789 475.971 99.9741 433.327 96.0367 389.026L131.816 385.846C135.229 424.256 148.074 461.23 169.21 493.484C190.346 525.738 219.118 552.274 252.973 570.737C286.828 589.2 324.718 599.018 363.279 599.32C401.84 599.622 439.879 590.398 474.019 572.467L490.721 604.268Z" fill="#86DDEA"/>
</svg>
