<svg width="224" height="494" viewBox="0 0 224 494" fill="none" xmlns="http://www.w3.org/2000/svg">
<path d="M-183.92 323.119C-196.815 294.35 -199.986 262.162 -192.951 231.429C-185.916 200.696 -169.059 173.093 -144.933 152.797C-120.807 132.502 -90.7243 120.62 -59.2411 118.951C-27.7578 117.282 3.41204 125.917 29.549 143.548C55.6859 161.179 75.3666 186.845 85.6112 216.662C95.8557 246.479 96.1063 278.821 86.3249 308.793C76.5435 338.765 57.2628 364.733 31.4022 382.767C5.54157 400.801 -25.4907 409.917 -56.9961 408.736L-55.8045 376.948C-31.2087 377.87 -6.98226 370.753 13.2068 356.674C33.3958 342.596 48.4479 322.322 56.0841 298.924C63.7203 275.525 63.5247 250.276 55.5269 226.998C47.5291 203.721 32.1647 183.683 11.76 169.919C-8.64474 156.155 -32.9786 149.414 -57.5571 150.717C-82.1356 152.02 -105.62 161.296 -124.455 177.14C-143.291 192.985 -156.45 214.534 -161.942 238.527C-167.434 262.519 -164.959 287.648 -154.892 310.108L-183.92 323.119Z" fill="#FEA091"/>
<path d="M-223.223 194.049C-210.253 146.36 -180.176 105.117 -138.733 78.1922C-97.2895 51.2673 -47.3828 40.5461 1.46191 48.075C50.3065 55.6039 94.6684 80.8557 126.08 119.01C157.492 157.165 173.754 205.551 171.761 254.932L137.256 253.54C138.906 212.639 125.437 172.562 99.4193 140.96C73.4017 109.357 36.6579 88.4414 -3.79896 82.2054C-44.2558 75.9694 -85.5923 84.8495 -119.919 107.151C-154.245 129.452 -179.157 163.613 -189.9 203.113L-223.223 194.049Z" fill="#86DDEA"/>
</svg>
