<svg width="1440" height="364" viewBox="0 0 1440 364" fill="none" xmlns="http://www.w3.org/2000/svg">
<path d="M1153.56 -15.0599C1172.78 -59.0124 1205.15 -95.9247 1246.23 -120.714C1287.3 -145.503 1335.04 -156.951 1382.89 -153.479C1430.74 -150.008 1476.33 -131.789 1513.39 -101.331C1550.45 -70.8733 1577.16 -29.6744 1589.84 16.5925C1602.52 62.8593 1600.54 111.918 1584.18 157.015C1567.82 202.111 1537.88 241.026 1498.49 268.402C1459.09 295.777 1412.18 310.267 1364.21 309.875C1316.24 309.484 1269.57 294.23 1230.63 266.215L1253.99 233.744C1286.21 256.929 1324.84 269.552 1364.54 269.876C1404.23 270.2 1443.06 258.209 1475.66 235.554C1508.26 212.898 1533.04 180.693 1546.58 143.373C1560.12 106.052 1561.75 65.4523 1551.26 27.1631C1540.77 -11.1261 1518.67 -45.2212 1487.99 -70.4274C1457.32 -95.6336 1419.59 -110.711 1379.99 -113.584C1340.4 -116.457 1300.88 -106.983 1266.9 -86.4681C1232.91 -65.9531 1206.11 -35.4054 1190.2 0.968479L1153.56 -15.0599Z" fill="#156B79"/>
<path d="M1300.29 -60.9318C1323.73 -74.1914 1350.15 -81.2992 1377.08 -81.5927C1404.01 -81.8862 1430.57 -75.3557 1454.3 -62.6101C1478.02 -49.8646 1498.13 -31.3191 1512.75 -8.70281C1527.37 13.9135 1536.03 39.864 1537.91 66.7291C1539.8 93.5942 1534.85 120.499 1523.53 144.935C1512.21 169.371 1494.88 190.542 1473.17 206.474C1451.45 222.406 1426.06 232.581 1399.35 236.049C1372.65 239.518 1345.5 236.167 1320.44 226.309L1334.53 190.471C1353.54 197.949 1374.14 200.491 1394.39 197.86C1414.65 195.229 1433.92 187.511 1450.39 175.426C1466.86 163.34 1480 147.281 1488.58 128.746C1497.17 110.21 1500.93 89.8017 1499.5 69.4234C1498.07 49.0452 1491.5 29.3607 1480.41 12.2053C1469.32 -4.95002 1454.07 -19.0175 1436.07 -28.6855C1418.07 -38.3535 1397.92 -43.3072 1377.5 -43.0846C1357.07 -42.8619 1337.03 -37.4703 1319.25 -27.4125L1300.29 -60.9318Z" fill="#86DDEA"/>
</svg>
